<?xml version="1.0" encoding="UTF-8" standalone="no"?>
<!-- Created with Inkscape (http://www.inkscape.org/) -->

<svg
   width="210mm"
   height="297mm"
   viewBox="0 0 210 297"
   version="1.1"
   id="svg1"
   inkscape:version="1.3.2 (091e20e, 2023-11-25, custom)"
   sodipodi:docname="orzełek.svg"
   xmlns:inkscape="http://www.inkscape.org/namespaces/inkscape"
   xmlns:sodipodi="http://sodipodi.sourceforge.net/DTD/sodipodi-0.dtd"
   xmlns="http://www.w3.org/2000/svg"
   xmlns:svg="http://www.w3.org/2000/svg">
  <sodipodi:namedview
     id="namedview1"
     pagecolor="#505050"
     bordercolor="#eeeeee"
     borderopacity="1"
     inkscape:showpageshadow="0"
     inkscape:pageopacity="0"
     inkscape:pagecheckerboard="0"
     inkscape:deskcolor="#d1d1d1"
     inkscape:document-units="mm"
     inkscape:zoom="0.82982955"
     inkscape:cx="1475.0017"
     inkscape:cy="288.61349"
     inkscape:window-width="3720"
     inkscape:window-height="2126"
     inkscape:window-x="2989"
     inkscape:window-y="-11"
     inkscape:window-maximized="1"
     inkscape:current-layer="layer1" />
  <defs
     id="defs1" />
  <g
     inkscape:label="Warstwa 1"
     inkscape:groupmode="layer"
     id="layer1">
    <circle
       style="fill:#000000;stroke-width:3.09999;stroke-linecap:round;stroke-linejoin:round;paint-order:stroke fill markers"
       id="path1"
       cx="39.2971"
       cy="78.036232"
       r="10.601449" />
    <rect
       style="fill:#000000;stroke-width:4.4889;stroke-linecap:round;stroke-linejoin:round;paint-order:stroke fill markers"
       id="rect1"
       width="58.773762"
       height="21.202883"
       x="39.2971"
       y="67.434792" />
    <circle
       style="fill:#000000;stroke-width:5.72053;stroke-linecap:round;stroke-linejoin:round;paint-order:stroke fill markers"
       id="circle1"
       cx="98.070862"
       cy="86.998047"
       r="19.563259" />
    <path
       id="circle2"
       style="fill:#000000;stroke-width:3.09999;stroke-linecap:round;stroke-linejoin:round;paint-order:stroke fill markers"
       d="m 48.868177,83.666149 c -5.854996,1.6e-5 -10.601404,4.746424 -10.60142,10.60142 2.1e-5,5.854991 4.746428,10.601391 10.60142,10.601411 H 113.61816 V 83.666149 Z"
       sodipodi:nodetypes="cccccc" />
    <path
       id="path2"
       style="fill:#000000;stroke-width:3.09999;stroke-linecap:round;stroke-linejoin:round;paint-order:stroke fill markers"
       d="m 60.735092,99.985038 c -5.854993,1.6e-5 -10.6014,4.746422 -10.60142,10.601412 1.6e-5,5.855 4.746424,10.6014 10.60142,10.60142 l 53.702718,0 V 99.985038 Z"
       sodipodi:nodetypes="cccccc" />
    <path
       id="path3"
       style="fill:#000000;stroke-width:3.09999;stroke-linecap:round;stroke-linejoin:round;paint-order:stroke fill markers"
       d="m 71.575672,116.72182 c -5.854996,2e-5 -10.601404,4.74642 -10.60142,10.60142 1.6e-5,5.855 4.746424,10.6014 10.60142,10.60142 l 42.862138,0 v -21.20284 z"
       sodipodi:nodetypes="cccccc" />
    <path
       d="m 96.290092,88.637672 c 0.98335,0 1.78077,0.79691 1.78077,1.78026 -1e-5,0.98335 -0.79742,1.78077 -1.78077,1.78077 h -63.09434 v -3.56103 z"
       style="fill:#8d8d8d;fill-opacity:1;stroke-width:0.520645;stroke-linecap:round;stroke-linejoin:round;paint-order:stroke fill markers"
       id="path5" />
    <path
       d="m 96.235763,104.86898 c 0.98335,0 1.78077,0.79691 1.78077,1.78026 -10e-6,0.98335 -0.79742,1.78077 -1.78077,1.78077 H 33.141427 v -3.56103 z"
       style="fill:#8d8d8d;fill-opacity:1;stroke-width:0.520645;stroke-linecap:round;stroke-linejoin:round;paint-order:stroke fill markers"
       id="path6" />
    <path
       d="m 96.379173,121.18787 c 0.98335,0 1.78077,0.79691 1.78077,1.78026 -1e-5,0.98335 -0.79742,1.78077 -1.78077,1.78077 H 33.284837 v -3.56103 z"
       style="fill:#8d8d8d;fill-opacity:1;stroke-width:0.520645;stroke-linecap:round;stroke-linejoin:round;paint-order:stroke fill markers"
       id="path7" />
    <rect
       style="fill:#000000;fill-opacity:1;stroke-width:3.09999;stroke-linecap:round;stroke-linejoin:round;paint-order:stroke fill markers"
       id="rect7"
       width="12.797854"
       height="23.305487"
       x="104.83627"
       y="86.998047" />
    <path
       id="path8"
       style="fill:#000000;fill-opacity:1;stroke-width:2.65884;stroke-linecap:round;stroke-linejoin:round;paint-order:stroke fill markers"
       d="m 130.62285,66.822231 a 12.569077,12.569077 0 0 0 17.77488,10e-7 12.569077,12.569077 0 0 0 3.7e-4,-17.775251 12.569077,12.569077 0 0 0 -17.77562,10e-7 l -8.88744,8.887439 z" />
    <path
       id="rect8"
       style="stroke-width:3.09999;stroke-linecap:round;stroke-linejoin:round;paint-order:stroke fill markers"
       transform="rotate(17.185893)"
       d="m 147.37024,24.276489 8.87338,-1.064134 22.72024,78.956245 -17.52655,3.26772 -8.39539,-4.44422 -2.96064,-3.038883 -8.50502,-17.717282 -0.59647,-22.528174 6.35128,-0.906947 z"
       sodipodi:nodetypes="cccccccccc" />
    <circle
       style="fill:#7e7e7e;fill-opacity:1;stroke-width:3.09999;stroke-linecap:round;stroke-linejoin:round;paint-order:stroke fill markers"
       id="path9"
       cx="120.88231"
       cy="96.78804"
       r="3.2481885" />
    <path
       id="path10"
       style="fill:#000000;stroke-width:1.91333;stroke-linecap:round;stroke-linejoin:round;paint-order:stroke fill markers"
       d="m 133.01586,174.73539 c 1e-5,3.61372 2.92951,6.54323 6.54324,6.54324 3.61373,-1e-5 6.54323,-2.92952 6.54324,-6.54324 v -26.4547 h -13.08648 z"
       sodipodi:nodetypes="cccccc" />
    <path
       id="path11"
       style="fill:#000000;stroke-width:1.91333;stroke-linecap:round;stroke-linejoin:round;paint-order:stroke fill markers"
       d="m 116.36835,168.15735 c 10e-6,3.61372 2.92951,6.54323 6.54324,6.54324 3.61373,-1e-5 6.54323,-2.92952 6.54324,-6.54324 v -26.4547 h -13.08648 z"
       sodipodi:nodetypes="cccccc" />
    <rect
       style="fill:#7e7e7e;fill-opacity:1;stroke-width:8.19295;stroke-linecap:round;stroke-linejoin:round;paint-order:stroke fill markers"
       id="rect11"
       width="20.175289"
       height="136.56183"
       x="139.5591"
       y="25.814522" />
    <path
       d="m 97.563036,163.21367 c -0.90616,1.03919 -2.48315,1.14753 -3.52233,0.24136 -1.03919,-0.90617 -1.14707,-2.48369 -0.2409,-3.52288 l 41.988774,-48.15257 3.76323,3.28152 z"
       style="fill:#000000;fill-opacity:1;stroke-width:0.730012;stroke-linecap:round;stroke-linejoin:round;paint-order:stroke fill markers"
       id="path12"
       sodipodi:nodetypes="sssccs" />
    <path
       d="m 90.861793,156.4178 c -1.337407,0.33526 -2.69363,-0.47671 -3.028894,-1.8141 -0.335249,-1.33741 0.477383,-2.6938 1.814791,-3.02906 l 15.36337,-3.85132 1.21409,4.84317 z"
       style="fill:#000000;fill-opacity:1;stroke-width:0.730012;stroke-linecap:round;stroke-linejoin:round;paint-order:stroke fill markers"
       id="path13"
       sodipodi:nodetypes="sssccs" />
    <path
       d="m 101.41227,165.61775 c -0.15009,1.37059 0.83893,2.60365 2.20951,2.75377 1.37059,0.15007 2.60375,-0.83964 2.75384,-2.21024 l 1.72417,-15.74461 -4.96336,-0.54353 z"
       style="fill:#000000;fill-opacity:1;stroke-width:0.730012;stroke-linecap:round;stroke-linejoin:round;paint-order:stroke fill markers"
       id="path14"
       sodipodi:nodetypes="sssccs" />
    <path
       d="m 129.45483,141.70265 c 0,-0.98335 0.79692,-1.78077 1.78026,-1.78077 0.98336,1e-5 1.78078,0.79742 1.78078,1.78077 v 63.09433 h -3.56104 z"
       style="fill:#8d8d8d;fill-opacity:1;stroke-width:0.520645;stroke-linecap:round;stroke-linejoin:round;paint-order:stroke fill markers"
       id="path15"
       sodipodi:nodetypes="sssccs" />
    <circle
       style="fill:#000000;stroke-width:3.09999;stroke-linecap:round;stroke-linejoin:round;paint-order:stroke fill markers"
       id="circle15"
       cx="42.904369"
       cy="280.9408"
       r="10.601449" />
    <rect
       style="fill:#000000;stroke-width:4.4889;stroke-linecap:round;stroke-linejoin:round;paint-order:stroke fill markers"
       id="rect15"
       width="58.773762"
       height="21.202883"
       x="42.904369"
       y="270.33936" />
    <circle
       style="fill:#000000;stroke-width:5.72053;stroke-linecap:round;stroke-linejoin:round;paint-order:stroke fill markers"
       id="circle16"
       cx="101.67813"
       cy="289.90262"
       r="19.563259" />
    <path
       id="path16"
       style="fill:#000000;stroke-width:3.09999;stroke-linecap:round;stroke-linejoin:round;paint-order:stroke fill markers"
       d="m 52.475446,286.57071 c -5.854996,2e-5 -10.601404,4.74643 -10.60142,10.60142 2.1e-5,5.85499 4.746428,10.60139 10.60142,10.60141 h 64.749984 v -21.20283 z"
       sodipodi:nodetypes="cccccc" />
    <path
       id="path17"
       style="fill:#000000;stroke-width:3.09999;stroke-linecap:round;stroke-linejoin:round;paint-order:stroke fill markers"
       d="m 64.342361,302.8896 c -5.854993,2e-5 -10.6014,4.74642 -10.60142,10.60141 1.6e-5,5.855 4.746424,10.6014 10.60142,10.60142 H 118.04508 V 302.8896 Z"
       sodipodi:nodetypes="cccccc" />
    <path
       id="path18"
       style="fill:#000000;stroke-width:3.09999;stroke-linecap:round;stroke-linejoin:round;paint-order:stroke fill markers"
       d="m 75.182941,319.62638 c -5.854996,2e-5 -10.601404,4.74642 -10.60142,10.60142 1.6e-5,5.855 4.746424,10.6014 10.60142,10.60142 h 42.862139 v -21.20284 z"
       sodipodi:nodetypes="cccccc" />
    <path
       d="m 99.897361,291.54224 c 0.983349,0 1.780769,0.79691 1.780769,1.78026 -10e-6,0.98335 -0.79742,1.78077 -1.780769,1.78077 h -63.09434 v -3.56103 z"
       style="fill:#8d8d8d;fill-opacity:1;stroke-width:0.520645;stroke-linecap:round;stroke-linejoin:round;paint-order:stroke fill markers"
       id="path19" />
    <path
       d="m 99.843032,307.77354 c 0.983348,0 1.780768,0.79691 1.780768,1.78026 -1e-5,0.98335 -0.79742,1.78077 -1.780768,1.78077 H 36.748696 v -3.56103 z"
       style="fill:#8d8d8d;fill-opacity:1;stroke-width:0.520645;stroke-linecap:round;stroke-linejoin:round;paint-order:stroke fill markers"
       id="path20" />
    <path
       d="m 99.986442,324.09243 c 0.983348,0 1.780768,0.79691 1.780768,1.78026 -1e-5,0.98335 -0.79742,1.78077 -1.780768,1.78077 H 36.892106 v -3.56103 z"
       style="fill:#8d8d8d;fill-opacity:1;stroke-width:0.520645;stroke-linecap:round;stroke-linejoin:round;paint-order:stroke fill markers"
       id="path21" />
    <rect
       style="fill:#000000;fill-opacity:1;stroke-width:3.09999;stroke-linecap:round;stroke-linejoin:round;paint-order:stroke fill markers"
       id="rect21"
       width="12.797854"
       height="23.305487"
       x="108.44354"
       y="289.90262" />
    <path
       id="path22"
       style="fill:#000000;fill-opacity:1;stroke-width:2.65884;stroke-linecap:round;stroke-linejoin:round;paint-order:stroke fill markers"
       d="m 134.23012,269.72679 a 12.569077,12.569077 0 0 0 17.77488,1e-5 12.569077,12.569077 0 0 0 3.7e-4,-17.77526 12.569077,12.569077 0 0 0 -17.77562,1e-5 l -8.88744,8.88743 z" />
    <path
       id="path23"
       style="stroke-width:3.09999;stroke-linecap:round;stroke-linejoin:round;paint-order:stroke fill markers"
       d="m 137.22455,269.64104 8.79162,1.60522 -1.62362,82.14415 -17.70953,-2.0568 -6.7074,-6.7264 -1.93054,-3.77799 -2.89031,-19.43922 6.08663,-21.69856 6.33568,1.01018 z"
       sodipodi:nodetypes="cccccccccc" />
    <circle
       style="fill:#7e7e7e;fill-opacity:1;stroke-width:3.09999;stroke-linecap:round;stroke-linejoin:round;paint-order:stroke fill markers"
       id="circle23"
       cx="124.48958"
       cy="299.6926"
       r="3.2481885" />
    <path
       id="path24"
       style="fill:#000000;stroke-width:1.91333;stroke-linecap:round;stroke-linejoin:round;paint-order:stroke fill markers"
       d="m 136.62313,377.63995 c 1e-5,3.61372 2.92951,6.54323 6.54324,6.54324 3.61373,-1e-5 6.54323,-2.92952 6.54324,-6.54324 v -26.4547 h -13.08648 z"
       sodipodi:nodetypes="cccccc" />
    <path
       id="path25"
       style="fill:#000000;stroke-width:1.91333;stroke-linecap:round;stroke-linejoin:round;paint-order:stroke fill markers"
       d="m 119.97562,371.06191 c 10e-6,3.61372 2.92951,6.54323 6.54324,6.54324 3.61373,-10e-6 6.54323,-2.92952 6.54324,-6.54324 v -26.4547 h -13.08648 z"
       sodipodi:nodetypes="cccccc" />
    <path
       d="m 101.17031,366.11823 c -0.90616,1.03919 -2.483155,1.14753 -3.522335,0.24136 -1.03919,-0.90617 -1.14707,-2.48369 -0.2409,-3.52288 l 41.988775,-48.15257 3.76323,3.28152 z"
       style="fill:#000000;fill-opacity:1;stroke-width:0.730012;stroke-linecap:round;stroke-linejoin:round;paint-order:stroke fill markers"
       id="path26"
       sodipodi:nodetypes="sssccs" />
    <path
       d="m 94.469062,359.32236 c -1.337407,0.33526 -2.69363,-0.47671 -3.028894,-1.8141 -0.335249,-1.33741 0.477383,-2.6938 1.814791,-3.02906 l 15.363371,-3.85132 1.21409,4.84317 z"
       style="fill:#000000;fill-opacity:1;stroke-width:0.730012;stroke-linecap:round;stroke-linejoin:round;paint-order:stroke fill markers"
       id="path27"
       sodipodi:nodetypes="sssccs" />
    <path
       d="m 105.01954,368.52231 c -0.15009,1.37059 0.83893,2.60365 2.20951,2.75377 1.37059,0.15007 2.60375,-0.83964 2.75384,-2.21024 l 1.72417,-15.74461 -4.96336,-0.54353 z"
       style="fill:#000000;fill-opacity:1;stroke-width:0.730012;stroke-linecap:round;stroke-linejoin:round;paint-order:stroke fill markers"
       id="path28"
       sodipodi:nodetypes="sssccs" />
    <path
       d="m 133.0621,344.60721 c 0,-0.98335 0.79692,-1.78077 1.78026,-1.78077 0.98336,1e-5 1.78078,0.79742 1.78078,1.78077 v 63.09433 h -3.56104 z"
       style="fill:#8d8d8d;fill-opacity:1;stroke-width:0.520645;stroke-linecap:round;stroke-linejoin:round;paint-order:stroke fill markers"
       id="path29"
       sodipodi:nodetypes="sssccs" />
    <path
       id="path30"
       style="stroke-width:3.09999;stroke-linecap:round;stroke-linejoin:round;paint-order:stroke fill markers"
       d="m 149.1082,269.64104 -8.79162,1.60522 1.62362,82.14415 17.70953,-2.0568 6.7074,-6.7264 1.93054,-3.77799 2.89031,-19.43922 -6.08663,-21.69856 -6.33568,1.01018 z"
       sodipodi:nodetypes="cccccccccc" />
    <path
       d="m 149.70961,344.60721 c 0,-0.98335 0.79692,-1.78077 1.78026,-1.78077 0.98336,1e-5 1.78078,0.79742 1.78078,1.78077 v 63.09433 h -3.56104 z"
       style="fill:#8d8d8d;fill-opacity:1;stroke-width:0.520645;stroke-linecap:round;stroke-linejoin:round;paint-order:stroke fill markers"
       id="path31"
       sodipodi:nodetypes="sssccs" />
    <path
       id="path32"
       style="fill:#000000;stroke-width:1.91333;stroke-linecap:round;stroke-linejoin:round;paint-order:stroke fill markers"
       d="m 153.27065,371.06191 c 1e-5,3.61372 2.92951,6.54323 6.54324,6.54324 3.61373,-10e-6 6.54323,-2.92952 6.54324,-6.54324 v -26.4547 h -13.08648 z"
       sodipodi:nodetypes="cccccc" />
    <path
       d="m 185.14785,366.11823 c 0.90616,1.03919 2.48315,1.14753 3.52233,0.24136 1.03919,-0.90617 1.14707,-2.48369 0.2409,-3.52288 l -41.98877,-48.15257 -3.76323,3.28152 z"
       style="fill:#000000;fill-opacity:1;stroke-width:0.730012;stroke-linecap:round;stroke-linejoin:round;paint-order:stroke fill markers"
       id="path33"
       sodipodi:nodetypes="sssccs" />
    <path
       d="m 191.84909,359.32236 c 1.33741,0.33526 2.69363,-0.47671 3.0289,-1.8141 0.33525,-1.33741 -0.47739,-2.6938 -1.81479,-3.02906 l -15.36337,-3.85132 -1.21409,4.84317 z"
       style="fill:#000000;fill-opacity:1;stroke-width:0.730012;stroke-linecap:round;stroke-linejoin:round;paint-order:stroke fill markers"
       id="path34"
       sodipodi:nodetypes="sssccs" />
    <path
       d="m 181.29862,368.52231 c 0.15009,1.37059 -0.83893,2.60365 -2.20951,2.75377 -1.37059,0.15007 -2.60375,-0.83964 -2.75384,-2.21024 l -1.72417,-15.74461 4.96336,-0.54353 z"
       style="fill:#000000;fill-opacity:1;stroke-width:0.730012;stroke-linecap:round;stroke-linejoin:round;paint-order:stroke fill markers"
       id="path35"
       sodipodi:nodetypes="sssccs" />
    <circle
       style="fill:#000000;stroke-width:3.09999;stroke-linecap:round;stroke-linejoin:round;paint-order:stroke fill markers"
       id="circle40"
       cx="-243.42839"
       cy="280.9408"
       r="10.601449"
       transform="scale(-1,1)" />
    <rect
       style="fill:#000000;stroke-width:4.4889;stroke-linecap:round;stroke-linejoin:round;paint-order:stroke fill markers"
       id="rect40"
       width="58.773762"
       height="21.202883"
       x="-243.42839"
       y="270.33936"
       transform="scale(-1,1)" />
    <circle
       style="fill:#000000;stroke-width:5.72053;stroke-linecap:round;stroke-linejoin:round;paint-order:stroke fill markers"
       id="circle41"
       cx="-184.65462"
       cy="289.90262"
       r="19.563259"
       transform="scale(-1,1)" />
    <path
       id="path41"
       style="fill:#000000;stroke-width:3.09999;stroke-linecap:round;stroke-linejoin:round;paint-order:stroke fill markers"
       d="m 233.8573,286.57071 c 5.855,2e-5 10.60141,4.74643 10.60142,10.60142 -2e-5,5.85499 -4.74643,10.60139 -10.60142,10.60141 h -64.74998 v -21.20283 z"
       sodipodi:nodetypes="cccccc" />
    <path
       id="path42"
       style="fill:#000000;stroke-width:3.09999;stroke-linecap:round;stroke-linejoin:round;paint-order:stroke fill markers"
       d="m 221.99039,302.8896 c 5.85499,2e-5 10.6014,4.74642 10.60142,10.60141 -2e-5,5.855 -4.74643,10.6014 -10.60142,10.60142 H 168.28767 V 302.8896 Z"
       sodipodi:nodetypes="cccccc" />
    <path
       id="path43"
       style="fill:#000000;stroke-width:3.09999;stroke-linecap:round;stroke-linejoin:round;paint-order:stroke fill markers"
       d="m 211.14981,319.62638 c 5.85499,2e-5 10.6014,4.74642 10.60142,10.60142 -2e-5,5.855 -4.74643,10.6014 -10.60142,10.60142 h -42.86214 v -21.20284 z"
       sodipodi:nodetypes="cccccc" />
    <path
       d="m 186.43539,291.54224 c -0.98335,0 -1.78077,0.79691 -1.78077,1.78026 1e-5,0.98335 0.79742,1.78077 1.78077,1.78077 h 63.09434 v -3.56103 z"
       style="fill:#8d8d8d;fill-opacity:1;stroke-width:0.520645;stroke-linecap:round;stroke-linejoin:round;paint-order:stroke fill markers"
       id="path44" />
    <path
       d="m 186.48972,307.77354 c -0.98335,0 -1.78077,0.79691 -1.78077,1.78026 1e-5,0.98335 0.79742,1.78077 1.78077,1.78077 h 63.09433 v -3.56103 z"
       style="fill:#8d8d8d;fill-opacity:1;stroke-width:0.520645;stroke-linecap:round;stroke-linejoin:round;paint-order:stroke fill markers"
       id="path45" />
    <path
       d="m 186.34631,324.09243 c -0.98335,0 -1.78077,0.79691 -1.78077,1.78026 1e-5,0.98335 0.79742,1.78077 1.78077,1.78077 h 63.09433 v -3.56103 z"
       style="fill:#8d8d8d;fill-opacity:1;stroke-width:0.520645;stroke-linecap:round;stroke-linejoin:round;paint-order:stroke fill markers"
       id="path46" />
    <circle
       style="fill:#7e7e7e;fill-opacity:1;stroke-width:3.09999;stroke-linecap:round;stroke-linejoin:round;paint-order:stroke fill markers"
       id="circle46"
       cx="161.83591"
       cy="299.6926"
       r="3.2481885" />
    <rect
       style="fill:#000000;fill-opacity:1;stroke-width:3.09999;stroke-linecap:round;stroke-linejoin:round;paint-order:stroke fill markers"
       id="rect46"
       width="12.797854"
       height="23.305487"
       x="165.09135"
       y="289.90262" />
    <path
       id="circle48"
       style="fill:#000000;stroke-width:5.72053;stroke-linecap:round;stroke-linejoin:round;paint-order:stroke fill markers"
       d="m 439.95082,4.6766947 a 12.569077,12.569077 0 0 0 -8.88783,3.68143 l -8.88731,8.8878303 8.88783,8.88783 a 12.569077,12.569077 0 0 0 2.39882,1.83141 l -9.02271,29.04939 -0.0289,0.09405 -0.006,-0.001 a 3.2481885,3.2481885 0 0 1 -3.08198,2.24017 3.2481885,3.2481885 0 0 1 -3.24838,-3.24838 3.2481885,3.2481885 0 0 1 0,-0.001 v -9.78907 A 19.563259,19.563259 0 0 0 398.51097,26.746155 H 339.7373 a 10.601449,10.601449 0 0 0 -10.60142,10.60142 10.601449,10.601449 0 0 0 10.60142,10.60142 h 0.59944 56.39346 c 0.98335,0 1.78077,0.7969 1.78077,1.78025 -10e-6,0.98335 -0.79742,1.78077 -1.78077,1.78077 h -57.79337 c -0.13515,0.67147 -0.22996,1.35741 -0.22996,2.06912 2e-5,5.8549 4.74651,10.6014 10.60142,10.60142 h 2.94866 44.41899 c 0.98335,0 1.78077,0.79691 1.78077,1.78026 -10e-6,0.98335 -0.79742,1.78077 -1.78077,1.78077 h -45.85302 c -0.14655,0.69885 -0.24908,1.41375 -0.24908,2.15645 2e-5,5.855 4.74648,10.6014 10.60142,10.60142 h 2.20504 33.43878 c 0.98333,0 1.78077,0.79693 1.78077,1.78026 -1e-5,0.98335 -0.79744,1.78077 -1.78077,1.78077 h -35.05419 c -0.20905,0.82709 -0.35036,1.6814 -0.35036,2.574 2e-5,5.85485 4.74642,10.6014 10.60142,10.60142 h 41.41401 l -8.70283,9.980265 -14.63942,3.67006 c -1.33741,0.33526 -2.15012,1.69135 -1.81487,3.02876 0.3352,1.33733 1.69186,2.14962 3.02927,1.81436 l 7.68118,-1.92547 -4.74338,5.43946 c -0.90611,1.03919 -0.79837,2.61713 0.24082,3.5233 1.03912,0.90617 2.6161,0.79735 3.52226,-0.24184 l 4.70307,-5.39347 -0.85369,7.79797 c -0.15009,1.37059 0.83916,2.60372 2.20968,2.75384 1.37059,0.15007 2.60375,-0.84012 2.75384,-2.21072 l 1.63453,-14.9288 8.34057,-9.56428 0.0181,0.0346 v 26.45472 c 1e-5,3.61365 2.92961,6.54326 6.54327,6.54327 3.61367,-1e-5 6.54326,-2.92962 6.54327,-6.54327 v -18.98695 l 0.007,0.001 v -7.46983 c 0,-0.98335 0.79692,-1.780765 1.78026,-1.780765 0.98335,1e-5 1.78077,0.797415 1.78077,1.780765 v 33.10547 c 0.0395,3.57976 2.94691,6.47143 6.53603,6.47144 3.61366,-1e-5 6.54326,-2.92955 6.54327,-6.54327 v -25.15143 l 0.007,-0.001 v -7.88117 c 0,-0.98335 0.79691,-1.780765 1.78025,-1.780765 0.98336,1e-5 1.78077,0.797415 1.78077,1.780765 v 26.52758 c 0.0395,3.57969 2.94696,6.47143 6.53603,6.47144 3.61366,-1e-5 6.54275,-2.92962 6.54276,-6.54327 v -26.45472 l 0.0119,-0.0243 8.33179,9.55394 1.63401,14.9288 c 0.15009,1.3706 1.38377,2.36079 2.75436,2.21072 1.37052,-0.15012 2.35925,-1.38325 2.20916,-2.75384 l -0.85317,-7.79797 4.70307,5.39347 c 0.90616,1.03919 2.48308,1.14801 3.52226,0.24184 1.03919,-0.90617 1.14693,-2.48411 0.24082,-3.5233 l -4.74338,-5.43946 7.68066,1.92547 c 1.33741,0.33526 2.69452,-0.47703 3.02979,-1.81436 0.33525,-1.33741 -0.47747,-2.6935 -1.81487,-3.02876 l -14.63994,-3.67006 -8.70231,-9.980265 h 41.429 c 5.85493,-2e-5 10.6014,-4.74657 10.60142,-10.60142 -10e-6,-0.89297 -0.14148,-1.74764 -0.35089,-2.57504 h -35.04695 c -0.98335,0 -1.78076,-0.79742 -1.78077,-1.78077 0,-0.98332 0.79742,-1.78025 1.78077,-1.78025 h 35.64692 c 5.84999,-0.0057 10.59106,-4.74893 10.59108,-10.60039 0,-0.74306 -0.10239,-1.45834 -0.24908,-2.15749 h -45.84578 c -0.98335,0 -1.78076,-0.79742 -1.78077,-1.78077 0,-0.98335 0.79742,-1.78025 1.78077,-1.78025 h 47.37024 c 5.85007,-0.0058 10.59106,-4.74903 10.59108,-10.60039 0,-0.71209 -0.0948,-1.39837 -0.22996,-2.07015 h -57.78562 c -0.98335,0 -1.78076,-0.79742 -1.78077,-1.78077 0,-0.98335 0.79742,-1.78026 1.78077,-1.78026 h 56.99084 a 10.601449,10.601449 0 0 0 10.59677,-10.60038 10.601449,10.601449 0 0 0 -10.60194,-10.60142 h -58.77367 a 19.563259,19.563259 0 0 0 -19.56315,19.56314 v 9.78907 a 3.2481885,3.2481885 0 0 1 -3.24838,3.24838 3.2481885,3.2481885 0 0 1 -3.08147,-2.23914 l -0.006,0.001 -9.06714,-29.19356 a 12.569077,12.569077 0 0 0 2.31665,-1.78129 12.569077,12.569077 0 0 0 5.2e-4,-17.7756603 12.569077,12.569077 0 0 0 -8.88783,-3.68143 z" />
  </g>
</svg>
